<?xml version="1.0" encoding="UTF-8"?>
<svg id="Layer_1" xmlns="http://www.w3.org/2000/svg" version="1.1" viewBox="0 0 930.74 1080">
  <!-- Generator: Adobe Illustrator 30.2.1, SVG Export Plug-In . SVG Version: 2.1.1 Build 1)  -->
  <defs>
    <style>
      .st0 {
        fill: #021d32;
      }

      .st1 {
        fill: #4d67ea;
      }
    </style>
  </defs>
  <path class="st0" d="M578.02,0h-225.31c-19.28,0-34.9,15.63-34.9,34.9v32.35c0,19.28,15.63,34.9,34.9,34.9h61.58v61.86h102.15v-61.86h61.58c19.28,0,34.9-15.63,34.9-34.9v-32.35c0-19.28-15.63-34.9-34.9-34.9Z"/>
  <path class="st1" d="M465.37,1080c-62.81,0-123.76-12.31-181.16-36.59-55.42-23.44-105.19-56.99-147.91-99.72-42.73-42.73-76.28-92.49-99.72-147.91C12.31,738.39,0,677.44,0,614.63s12.31-123.76,36.59-181.16c23.44-55.42,56.99-105.19,99.72-147.91,42.73-42.73,92.49-76.28,147.91-99.72,57.4-24.28,118.35-36.59,181.16-36.59s123.76,12.31,181.16,36.59c55.42,23.44,105.18,56.99,147.91,99.72,42.73,42.73,76.28,92.49,99.72,147.91,24.28,57.4,36.59,118.35,36.59,181.16s-12.31,123.76-36.59,181.16c-23.44,55.42-56.99,105.18-99.72,147.91-42.73,42.73-92.49,76.28-147.91,99.72-57.4,24.28-118.35,36.59-181.16,36.59ZM465.37,228.71c-212.8,0-385.92,173.12-385.92,385.92s173.12,385.92,385.92,385.92,385.92-173.12,385.92-385.92-173.12-385.92-385.92-385.92Z"/>
  <path class="st0" d="M465.37,292.28c-178.03,0-322.35,144.32-322.35,322.35s144.32,322.35,322.35,322.35,322.35-144.32,322.35-322.35h-322.35v-322.35Z"/>
</svg>